<svg xmlns="http://www.w3.org/2000/svg" viewBox="0 0 192 192"><defs><style>.cls-1{fill:#fff;}</style></defs><g id="Layer_2" data-name="Layer 2"><g id="Layer_1-2" data-name="Layer 1"><rect width="192" height="192"/><path class="cls-1" d="M70.33,65.82V80.39h.27Q74.74,72,80.76,68T96,64.22v12a32.11,32.11,0,0,0-11.63,1.87,18.29,18.29,0,0,0-7.75,5.48,22.68,22.68,0,0,0-4.28,8.75A47.38,47.38,0,0,0,71,104.18v30.75H59.64V65.82Z"/><path class="cls-1" d="M132.89,65.82v10H119.13v42.9a12.54,12.54,0,0,0,.33,3.21,3.26,3.26,0,0,0,1.27,1.87,5.5,5.5,0,0,0,2.61.87,36.41,36.41,0,0,0,4.34.2h5.21v10h-8.68a41,41,0,0,1-7.56-.6,11.09,11.09,0,0,1-5.08-2.21,9.4,9.4,0,0,1-2.87-4.54,26.08,26.08,0,0,1-.94-7.76v-44H96v-10h11.76V45.1h11.37V65.82Z"/><rect class="cls-1" x="96" y="64.22" width="36.89" height="12.02"/><path class="cls-1" d="M124.3,154.5c1.15,3.36,3.57,6.06,4.86,9.21a75.11,75.11,0,0,0,16.42-11c-2.24-2.54-4.73-5-6.86-7.82A65.11,65.11,0,0,1,124.3,154.5Z"/><path class="cls-1" d="M96,171.36a75.68,75.68,0,0,0,13.51-1.21,89.31,89.31,0,0,1-2.87-10A64.37,64.37,0,0,1,96,161a65.23,65.23,0,0,1-11.08-.95c-.24,3.48-1.38,6.8-1.61,10.25A76.26,76.26,0,0,0,96,171.36Z"/><path class="cls-1" d="M83.31,170.3c.23-3.45,1.37-6.77,1.61-10.25a64.75,64.75,0,0,1-19.26-6.58c-1.29,3.27-4.13,5.6-5.68,8.76A74.58,74.58,0,0,0,83.31,170.3Z"/><path class="cls-1" d="M42.71,149.29A75.88,75.88,0,0,0,60,162.23c1.55-3.16,4.39-5.49,5.68-8.76a65.55,65.55,0,0,1-19.45-15.74c-3,1.91-5.41,4.33-8.11,6.51C39.56,146,41.09,147.66,42.71,149.29Z"/><path class="cls-1" d="M106.64,160.12a89.31,89.31,0,0,0,2.87,10,74.5,74.5,0,0,0,19.65-6.44c-1.29-3.15-3.71-5.85-4.86-9.21A64.5,64.5,0,0,1,106.64,160.12Z"/><path class="cls-1" d="M149.29,42.71A75.36,75.36,0,0,0,38.1,144.24c2.7-2.18,5.15-4.6,8.11-6.51a65,65,0,1,1,101.8-2.8h12.54a75.42,75.42,0,0,0-11.26-92.22Z"/><rect class="cls-1" x="132.89" y="124.9" width="21.51" height="10.03"/></g></g></svg>